<svg
   width="226.42241mm"
   height="116.7145mm"
   viewBox="0 0 226.42241 116.7145"
   version="1.1"
   id="svg8"
   inkscape:version="1.2.1 (0f2f062aeb, 2022-09-21, custom)"
   sodipodi:docname="divisiDesign.svg"
   xmlns:inkscape="http://www.inkscape.org/namespaces/inkscape"
   xmlns:sodipodi="http://sodipodi.sourceforge.net/DTD/sodipodi-0.dtd"
   xmlns="http://www.w3.org/2000/svg"
   xmlns:svg="http://www.w3.org/2000/svg"
   xmlns:rdf="http://www.w3.org/1999/02/22-rdf-syntax-ns#"
   xmlns:cc="http://creativecommons.org/ns#"
   xmlns:dc="http://purl.org/dc/elements/1.1/">
  <defs
     id="defs2" />
  <sodipodi:namedview
     id="base"
     pagecolor="#b9b9b9"
     bordercolor="#666666"
     borderopacity="1.0"
     inkscape:pageopacity="0"
     inkscape:pageshadow="2"
     inkscape:zoom="0.35"
     inkscape:cx="302.85714"
     inkscape:cy="322.85714"
     inkscape:document-units="mm"
     inkscape:current-layer="layer1"
     inkscape:document-rotation="0"
     showgrid="false"
     inkscape:window-width="1366"
     inkscape:window-height="697"
     inkscape:window-x="0"
     inkscape:window-y="0"
     inkscape:window-maximized="1"
     inkscape:showpageshadow="0"
     inkscape:pagecheckerboard="true"
     inkscape:deskcolor="#343434" />
  <metadata
     id="metadata5">
    <rdf:RDF>
      <cc:Work
         rdf:about="">
        <dc:format>image/svg+xml</dc:format>
        <dc:type
           rdf:resource="http://purl.org/dc/dcmitype/StillImage" />
      </cc:Work>
    </rdf:RDF>
  </metadata>
  <g
     inkscape:label="Layer 1"
     inkscape:groupmode="layer"
     id="layer1"
     transform="translate(8.2112042,-61.906998)">
    <g
       aria-label="Programming" <!-- Updated label -->
       transform="rotate(-3.1624718)"
       id="text835"
       style="font-weight:bold;font-size:84.2137px;line-height:1.25;font-family:Lobster;-inkscape-font-specification:'Lobster Bold';fill:#ffffff;stroke-width:2.10535">
      <path
         d="m 16.641525,165.97336 q -5.052822,0 -10.2740713,-4.46332 l -0.6737096,3.36855 H -6.4330286 L 5.0200345,111.31867 17.483662,109.6344 7.3780181,156.87828 q 2.3579836,1.68428 4.8001809,1.68428 4.800181,0 8.42137,-5.55811 3.705403,-5.5581 5.726531,-14.1479 2.021129,-8.58979 2.021129,-17.34802 0,-8.25294 -3.284334,-12.04256 -3.200121,-3.87383 -9.010866,-3.87383 -6.3160273,0 -11.3688493,2.52641 -4.96860824,2.4422 -7.831874,7.07395 -2.8632658,4.63176 -2.8632658,10.86357 0,3.11591 0.5894959,4.37911 0.5894959,1.17899 0.5894959,1.34742 -4.3791124,0 -6.7370957,-1.8527 -2.27377,-1.8527 -2.27377,-5.97917 0,-5.72653 4.2948985,-10.86357 4.2948987,-5.13703 11.4530631,-8.25294 7.2423782,-3.11591 15.5795344,-3.11591 11.537277,0 17.011167,6.82131 5.473891,6.82131 5.473891,17.43224 0,9.60036 -3.284335,18.94808 -3.20012,9.26351 -8.589797,15.15846 -5.389677,5.89496 -11.453063,5.89496 z"
         id="path414" />
      <path
         d="m 53.526973,165.38387 q -6.231814,0 -9.684575,-3.20012 -3.452762,-3.28434 -3.452762,-10.18986 0,-5.81075 2.27377,-12.80048 2.27377,-6.98974 7.410805,-12.04256 5.137036,-5.13704 13.053124,-5.13704 9.263507,0 9.263507,8.08452 0,4.71597 -2.694839,8.67401 -2.694838,3.95804 -7.158164,6.40024 -4.463326,2.35798 -9.516148,2.69484 -0.168427,2.52641 -0.168427,3.36855 0,4.12647 1.431632,5.64231 1.431633,1.43164 4.631754,1.43164 4.54754,0 7.74766,-2.10535 3.284334,-2.10534 7.158165,-6.40024 h 2.863265 q -9.34772,15.57954 -23.158767,15.57954 z m 0.168428,-21.55871 q 3.115906,-0.16843 5.894958,-2.18956 2.863266,-2.02112 4.54754,-5.13703 1.768488,-3.11591 1.768488,-6.56867 0,-3.45276 -2.105343,-3.45276 -3.031693,0 -5.979172,5.30546 -2.863266,5.30547 -4.126471,12.04256 z"
         id="path416" />
      <path
         d="m 83.422739,165.38387 q -4.042258,0 -6.82131,-1.51585 -2.779052,-1.60006 -4.126471,-4.04226 -1.347419,-2.52641 -1.347419,-5.22125 0,-2.77905 1.347419,-4.80018 1.263206,-2.10534 3.115907,-3.03169 3.284334,-5.89496 5.726531,-11.87413 2.442198,-6.06339 4.631754,-13.05312 l 12.463627,-1.68428 q 0.421069,10.77935 1.431633,23.3272 0.42107,5.05282 0.42107,7.32659 0,1.93691 -0.336856,3.20012 3.958046,-2.27377 6.063386,-4.21069 h 3.53698 q -5.38968,6.23182 -12.8847,10.52672 -2.442198,2.61062 -6.063387,3.87383 -3.536975,1.17899 -7.158164,1.17899 z m -2.694838,-6.65288 q 3.115906,0 5.221249,-1.85271 2.105342,-1.8527 2.105342,-5.97917 0,-2.52641 -0.67371,-4.80018 -0.67371,-2.35798 -1.85271,-4.63176 -2.357981,3.53698 -4.80018,6.65288 -2.442198,3.20012 -5.389678,5.72653 2.189555,1.51585 4.126471,2.4422 1.936915,0.67371 3.705404,0.67371 z"
         id="path418" />
      <path
         d="m 130.05322,165.38387 q -6.98477,0 -11.53728,-4.63176 -4.54753,-4.63176 -4.54753,-12.37828 0,-7.74766 4.54753,-12.46363 4.54753,-4.80018 11.53728,-4.80018 6.82131,0 11.53728,4.80018 4.54753,4.71597 4.54753,12.46363 0,7.74762 -4.54753,12.37828 -4.71597,4.63176 -11.53728,4.63176 z m 0.16843,-21.05891 q 3.03169,0 5.52653,2.18956 2.49484,2.18955 2.49484,5.38968 0,3.20012 -2.49484,5.38967 -2.49484,2.18956 -5.52653,2.18956 -3.03169,0 -5.52653,-2.18956 -2.49484,-2.18955 -2.49484,-5.38967 0,-3.20013 2.49484,-5.38968 2.49484,-2.18955 5.52653,-2.18956 z"
         id="path420" />
      <path
         d="m 168.54896,153.82037 q 0,4.80018 -2.4422,8.42137 -2.4422,3.62119 -6.40024,5.72653 -3.95804,2.10534 -8.42137,2.10534 -4.54754,0 -8.42137,-2.10534 -3.96225,-2.10534 -6.40024,-5.72653 -2.4422,-3.62119 -2.4422,-8.42137 0,-4.80018 2.4422,-8.42137 2.43707,-3.62119 6.40024,-5.72653 3.95804,-2.10534 8.42137,-2.10534 4.46333,0 8.42137,2.10534 3.95804,2.10534 6.40024,5.72653 2.4422,3.62119 2.4422,8.42137 z m -11.53728,0 q 0,-3.87383 -1.85271,-5.97917 -1.8527,-2.10534 -5.24238,-2.10534 -3.38456,0 -5.23728,2.10534 -1.85271,2.10534 -1.85271,5.97917 0,3.87383 1.85271,5.97917 1.85272,2.10534 5.23728,2.10534 3.38968,0 5.24238,-2.10534 1.85271,-2.10534 1.85271,-5.97917 z"
         id="path422" />
    </g>
  </g>
</svg>
